<svg width="65" height="65" viewBox="0 0 65 65" fill="none" xmlns="http://www.w3.org/2000/svg">
<style>
        rect{
        fill: white;
        }
        @media ( prefers-color-scheme: dark ) {
        rect{
        fill: #262626;
        }
        path{
            stroke: white;
        }
        }
    </style>
<rect width="65" height="65" rx="16" fill="white"/>
<path d="M21.875 41.6375C26.55 41.6375 30.375 37.7487 30.375 33.0312C30.375 30.5662 29.1637 28.2287 26.7412 26.2525C24.3187 24.2762 22.4912 21.3437 21.875 18.2625C21.2588 21.3437 19.4525 24.2975 17.0088 26.2525C14.565 28.2075 13.375 30.5875 13.375 33.0312C13.375 37.7487 17.2 41.6375 21.875 41.6375Z" stroke="#155DFC" stroke-width="7" stroke-linecap="round" stroke-linejoin="round"/>
<path d="M33.69 21.025C35.1503 18.6893 36.1862 16.1138 36.75 13.4175C37.8125 18.73 41 23.83 45.25 27.23C49.5 30.63 51.625 34.6675 51.625 38.9175C51.6371 41.8549 50.7768 44.7297 49.1532 47.1776C47.5295 49.6254 45.2156 51.5361 42.5048 52.6673C39.7939 53.7985 36.8082 54.0994 33.9262 53.5317C31.0442 52.9641 28.3956 51.5535 26.3162 49.4787" stroke="#155DFC" stroke-width="7" stroke-linecap="round" stroke-linejoin="round"/>
</svg>
